<?xml version="1.0" encoding="UTF-8" standalone="no"?>
<svg
   xmlns:dc="http://purl.org/dc/elements/1.1/"
   xmlns:cc="http://creativecommons.org/ns#"
   xmlns:rdf="http://www.w3.org/1999/02/22-rdf-syntax-ns#"
   xmlns:svg="http://www.w3.org/2000/svg"
   xmlns="http://www.w3.org/2000/svg"
   xmlns:sodipodi="http://sodipodi.sourceforge.net/DTD/sodipodi-0.dtd"
   xmlns:inkscape="http://www.inkscape.org/namespaces/inkscape"
   width="64"
   height="64"
   viewBox="0 0 64 64"
   fill="none"
   version="1.1"
   id="svg6"
   sodipodi:docname="bear.svg"
   inkscape:version="0.92.5 (2060ec1f9f, 2020-04-08)">
  <metadata
     id="metadata12">
    <rdf:RDF>
      <cc:Work
         rdf:about="">
        <dc:format>image/svg+xml</dc:format>
        <dc:type
           rdf:resource="http://purl.org/dc/dcmitype/StillImage" />
      </cc:Work>
    </rdf:RDF>
  </metadata>
  <defs
     id="defs10" />
  <sodipodi:namedview
     pagecolor="#ffffff"
     bordercolor="#666666"
     borderopacity="1"
     objecttolerance="10"
     gridtolerance="10"
     guidetolerance="10"
     inkscape:pageopacity="0"
     inkscape:pageshadow="2"
     inkscape:window-width="1920"
     inkscape:window-height="1031"
     id="namedview8"
     showgrid="false"
     inkscape:zoom="3.6875"
     inkscape:cx="32"
     inkscape:cy="32"
     inkscape:window-x="0"
     inkscape:window-y="24"
     inkscape:window-maximized="1"
     inkscape:current-layer="svg6" />
  <path
     d="M62 39V30C62 29.447 61.552 29 61 29H53C53 25.691 50.309 23 47 23V13C48.103 13 49 12.103 49 11V5C49 3.897 48.103 3 47 3H39C37.897 3 37 3.897 37 5V11C37 12.103 37.897 13 39 13V23C35.691 23 33 25.691 33 29V60C33 60.553 33.448 61 34 61H61C61.388 61 61.741 60.775 61.906 60.424C62.071 60.073 62.017 59.658 61.768 59.36L57 53.638V46.411C59.928 45.221 62 42.35 62 39ZM41 13H45V23H41V13ZM35 49V35H46V38.026C45.162 37.391 44.13 37 43 37C40.243 37 38 39.243 38 42C38 44.757 40.243 47 43 47C45.108 47 46.907 45.684 47.641 43.834C48.505 44.968 49.661 45.867 51 46.411V49H35ZM58.865 59H49.136L52.769 54.641C52.918 54.461 53 54.234 53 54V46.931C53.328 46.972 53.661 47 54 47C54.339 47 54.672 46.972 55 46.931V54C55 54.234 55.082 54.461 55.232 54.641L58.865 59ZM48 36V31H60V36H48Z"
     fill="black"
     id="path2"
     style="fill:#262626;fill-opacity:1" />
  <path
     d="M26.958 33C26.719 31.583 25.483 30.5 24 30.5C23.653 30.5 23.312 30.561 22.991 30.677C22.147 29.634 20.866 29 19.5 29C17.562 29 15.859 30.27 15.251 32.062C15.179 32.074 15.107 32.087 15.035 32.102C14.381 31.409 13.464 31 12.5 31C10.57 31 9 32.57 9 34.5C9 35.871 9.804 37.093 11 37.662V39H7C4.243 39 2 41.243 2 44V51C2 53.757 4.243 56 7 56H11C11 58.757 13.243 61 16 61H26C28.757 61 31 58.757 31 56V37C31 34.78 29.202 32.995 26.958 33ZM11 50H8V45H11V50ZM11 43H7C6.448 43 6 43.447 6 44V51C6 51.553 6.448 52 7 52H11V54H7C5.346 54 4 52.654 4 51V44C4 42.346 5.346 41 7 41H11V43ZM18 55C18 55.553 17.552 56 17 56C16.448 56 16 55.553 16 55V45C16 44.447 16.448 44 17 44C17.552 44 18 44.447 18 45V55ZM22 53C22 53.553 21.552 54 21 54C20.448 54 20 53.553 20 53V49C20 48.447 20.448 48 21 48C21.552 48 22 48.447 22 49V53ZM26 55C26 55.553 25.552 56 25 56C24.448 56 24 55.553 24 55V47C24 46.447 24.448 46 25 46C25.552 46 26 46.447 26 47V55ZM27 39C25.897 39 25 38.103 25 37C25 36.447 24.552 36 24 36C23.448 36 23 36.447 23 37V42C23 42.552 22.551 43 22 43C21.449 43 21 42.552 21 42V39.488C21 39.108 20.785 38.761 20.445 38.592C20.304 38.522 20.152 38.488 20 38.488C19.786 38.488 19.573 38.556 19.396 38.691C19.21 38.832 18.904 39 18.5 39C17.79 39 17.171 38.496 17.03 37.801C16.936 37.335 16.476 37 16 37C15.448 37 15 37.447 15 38V40C15 40.552 14.551 41 14 41C13.449 41 13 40.552 13 40V37.048C13.003 37.014 13.005 36.978 13.005 36.95C13.005 36.473 12.669 36.063 12.202 35.97C11.505 35.83 11 35.212 11 34.5C11 33.673 11.673 33 12.5 33C13.032 33 13.514 33.281 13.789 33.753C14.032 34.169 14.536 34.354 14.99 34.191C15.332 34.069 15.649 34.006 15.957 34.001C15.99 34.004 16.024 34.006 16.05 34.006C16.548 34.006 16.969 33.64 17.04 33.148C17.215 31.923 18.272 31 19.5 31C20.459 31 21.345 31.567 21.757 32.446C21.892 32.734 22.156 32.941 22.468 33.003C22.781 33.07 23.104 32.976 23.338 32.76C23.467 32.642 23.688 32.5 24 32.5C24.551 32.5 25 32.948 25 33.5C25 33.618 24.976 33.739 24.928 33.861C24.781 34.234 24.871 34.659 25.157 34.94C25.443 35.221 25.869 35.303 26.24 35.152C26.484 35.051 26.74 35 27 35C28.103 35 29 35.897 29 37C29 38.103 28.103 39 27 39Z"
     fill="black"
     id="path4"
     style="fill:#262626;fill-opacity:1" />
</svg>
