<?xml version="1.0" encoding="UTF-8" standalone="no"?>
<svg
   xmlns:dc="http://purl.org/dc/elements/1.1/"
   xmlns:cc="http://creativecommons.org/ns#"
   xmlns:rdf="http://www.w3.org/1999/02/22-rdf-syntax-ns#"
   xmlns:svg="http://www.w3.org/2000/svg"
   xmlns="http://www.w3.org/2000/svg"
   xmlns:sodipodi="http://sodipodi.sourceforge.net/DTD/sodipodi-0.dtd"
   xmlns:inkscape="http://www.inkscape.org/namespaces/inkscape"
   width="512"
   height="512"
   viewBox="0 0 512 512"
   fill="none"
   version="1.1"
   id="svg6"
   sodipodi:docname="brazil.svg"
   inkscape:version="0.92.5 (2060ec1f9f, 2020-04-08)">
  <metadata
     id="metadata12">
    <rdf:RDF>
      <cc:Work
         rdf:about="">
        <dc:format>image/svg+xml</dc:format>
        <dc:type
           rdf:resource="http://purl.org/dc/dcmitype/StillImage" />
      </cc:Work>
    </rdf:RDF>
  </metadata>
  <defs
     id="defs10" />
  <sodipodi:namedview
     pagecolor="#ffffff"
     bordercolor="#666666"
     borderopacity="1"
     objecttolerance="10"
     gridtolerance="10"
     guidetolerance="10"
     inkscape:pageopacity="0"
     inkscape:pageshadow="2"
     inkscape:window-width="1920"
     inkscape:window-height="1031"
     id="namedview8"
     showgrid="false"
     inkscape:zoom="1.84375"
     inkscape:cx="256.92155"
     inkscape:cy="282.10661"
     inkscape:window-x="0"
     inkscape:window-y="24"
     inkscape:window-maximized="1"
     inkscape:current-layer="svg6" />
  <rect
     style="fill:#262626;fill-opacity:1"
     id="rect815"
     width="448"
     height="320"
     x="32"
     y="96"
     ry="50.440678" />
  <path
     d="M256 144L88 258.383L256 368L424 258.383L256 144Z"
     fill="#ebebeb"
     id="id_102"
     style="fill:#f9f9f9" />
  <path
     d="M320 256C320 291.346 291.346 320 256 320C220.654 320 192 291.346 192 256C192 220.654 220.654 192 256 192C291.346 192 320 220.654 320 256Z"
     fill="#262626"
     id="id_103"
     style="fill:#262626;fill-opacity:1" />
  <path
     fill-rule="evenodd"
     clip-rule="evenodd"
     d="M201.428 222.56C208.684 220.885 216.242 220 224.007 220C264.861 220 299.993 244.498 315.513 279.606C311.761 289.056 305.823 297.4 298.323 304.015C290.981 269.717 260.497 244 224.007 244C212.652 244 201.879 246.49 192.203 250.954C193.01 240.603 196.28 230.943 201.428 222.56Z"
     fill="#e6e6e6"
     id="id_104"
     style="fill:#f9f9f9" />
</svg>
