<svg version="1.1" id="Layer_1" xmlns="http://www.w3.org/2000/svg" xmlns:xlink="http://www.w3.org/1999/xlink" x="0px" y="0px" width="425.098px" height="425.098px" viewBox="0 0 425.098 425.098" enable-background="new 0 0 425.098 425.098" xml:space="preserve">
<path fill-rule="evenodd" clip-rule="evenodd" d="M126.006,236.891v58.481c0.066,1.502,1.268,2.646,2.771,2.646h19.769
	c-1.336,3.099-2.428,6.364-3.247,9.799h-16.522c-7.776,0-12.57-5.967-12.57-13.495v-57.431c-0.089-2.163-0.577-4.264-1.417-6.201
	c-0.854-1.977-2.089-3.809-3.659-5.394l-0.096-0.096c-4.781-5.089-7.456-11.802-7.456-18.79c0-7.58,3.074-14.445,8.041-19.412
	c4.202-4.202,9.756-7.045,15.954-7.823l0.245-0.03l0.062-0.008l0.184-0.021l0.245-0.024l0.246-0.024l0.018-0.002l0.228-0.019
	l0.12-0.009l0.128-0.01l0.222-0.016l0.024-0.001l0.247-0.014l0.078-0.005l0.17-0.007l0.181-0.008l0.066-0.002l0.248-0.007
	l0.039-0.001l0.21-0.004l0.144-0.002l0.105-0.001l0.25-0.001h30.668h18.439c0.72,0,1.434,0.027,2.139,0.083v9.845
	c-0.701-0.085-1.415-0.129-2.139-0.129h-49.107c-4.875,0-9.29,1.977-12.483,5.171s-5.171,7.608-5.171,12.483
	c0,4.527,1.674,8.789,4.777,12.093c2.377,2.425,4.262,5.251,5.592,8.321c1.345,3.107,2.113,6.459,2.239,9.894L126.006,236.891
	L126.006,236.891z M321.279,323.258c0-23.286-12.392-40.266-30.509-50.984l-16.465,23.211c-1.563,2.198-4.614,2.713-6.813,1.148
	c-2.198-1.563-2.713-4.614-1.148-6.813l15.652-22.063c-7.067-3.147-14.739-5.491-22.708-7.034l-24.66,34.762
	c-1.563,2.198-4.614,2.713-6.813,1.148c-2.198-1.563-2.713-4.614-1.149-6.813l21.768-30.684c-4.264-0.431-8.571-0.646-12.879-0.641
	c-5.018-0.007-10.033,0.287-14.981,0.871l-25.622,36.117c-1.564,2.198-4.615,2.713-6.813,1.148
	c-2.199-1.563-2.713-4.614-1.149-6.813l19.88-28.024c-31.43,7.532-57.039,27.98-57.039,61.462c0,5.103,4.06,9.256,9.126,9.408
	l76.598,0.003l76.599-0.003C317.219,332.514,321.279,328.36,321.279,323.258L321.279,323.258z M185.187,262.822v-78.596
	l11.341,11.34l11.34-11.34l11.341,11.34l11.341-11.34l11.342,11.34l11.343-11.34l11.341,11.34l11.34-11.34l11.342,11.34l11.34-11.34
	l11.342,11.34l11.341-11.34v110.631c-14.688-29.93-52.523-42.654-85.723-42.654C218.669,252.198,200.713,255.621,185.187,262.822
	L185.187,262.822z M224.799,111.299c-15.58,0-28.622,32.552-31.957,76.182l3.686,3.686l11.34-11.34l1.252,1.25l25.885-25.885
	c1.914-1.914,5.017-1.914,6.93,0c1.913,1.912,1.913,5.015,0,6.929l-25.886,25.886l3.16,3.161l11.341-11.34l11.342,11.34l5.101-5.099
	c0.191-12.495,1.152-25.709,3.235-38.551C244.216,125.418,235.059,111.299,224.799,111.299L224.799,111.299z M282.878,92.668
	c-17.208,0-31.317,39.706-32.675,90.189l3.031-3.031l11.341,11.34l11.34-11.34l5.522,5.522l11.646-11.646
	c1.914-1.914,5.017-1.914,6.929,0c1.914,1.913,1.914,5.016,0,6.929l-0.305,0.305l10.23,10.23l5.673-5.672
	C314.686,133.763,300.383,92.668,282.878,92.668L282.878,92.668z M272.672,170.831c-1.914,1.914-5.017,1.914-6.929,0
	c-1.914-1.913-1.915-5.016,0-6.929l27.341-27.341c1.914-1.914,5.017-1.914,6.929,0c1.914,1.913,1.914,5.015,0,6.929L272.672,170.831
	L272.672,170.831z M145.652,250.072l27.341-27.341c1.914-1.914,1.914-5.017,0-6.93c-1.913-1.913-5.016-1.913-6.929,0l-27.341,27.342
	c-1.915,1.912-1.914,5.016,0,6.929C140.636,251.985,143.738,251.985,145.652,250.072L145.652,250.072z M145.652,272.738
	l27.341-27.341c1.914-1.914,1.914-5.017,0-6.929c-1.913-1.914-5.016-1.914-6.929,0l-27.341,27.34c-1.915,1.913-1.914,5.017,0,6.93
	C140.636,274.651,143.738,274.651,145.652,272.738L145.652,272.738z M184.348,179.278l5.773,5.773
	c0.113-1.346,0.238-2.707,0.373-4.074C188.548,180.183,186.489,179.607,184.348,179.278L184.348,179.278z M152.249,155.953
	l0.036-0.029l0.263-0.199l0.005-0.003c4.58-3.423,10.265-5.451,16.421-5.451h26.64c-2.242,9-3.765,18.367-4.774,27.417
	c-3.386-1.261-7.001-1.922-10.699-1.922h-18.312h-20.238h-10.558c-1.882,0-3.745,0.172-5.566,0.507L152.249,155.953z" id="id_101" style="fill: rgb(38, 38, 38);"></path>
</svg>