<?xml version="1.0" encoding="UTF-8" standalone="no"?>
<!-- Generator: Adobe Illustrator 16.0.0, SVG Export Plug-In . SVG Version: 6.00 Build 0)  -->

<svg
   xmlns:dc="http://purl.org/dc/elements/1.1/"
   xmlns:cc="http://creativecommons.org/ns#"
   xmlns:rdf="http://www.w3.org/1999/02/22-rdf-syntax-ns#"
   xmlns:svg="http://www.w3.org/2000/svg"
   xmlns="http://www.w3.org/2000/svg"
   xmlns:sodipodi="http://sodipodi.sourceforge.net/DTD/sodipodi-0.dtd"
   xmlns:inkscape="http://www.inkscape.org/namespaces/inkscape"
   version="1.1"
   x="0px"
   y="0px"
   width="512px"
   height="512px"
   viewBox="0 0 512 512"
   style="enable-background:new 0 0 512 512;"
   xml:space="preserve"
   id="svg28"
   sodipodi:docname="feijoada.svg"
   inkscape:version="0.92.5 (2060ec1f9f, 2020-04-08)"><metadata
   id="metadata34"><rdf:RDF><cc:Work
       rdf:about=""><dc:format>image/svg+xml</dc:format><dc:type
         rdf:resource="http://purl.org/dc/dcmitype/StillImage" /></cc:Work></rdf:RDF></metadata><defs
   id="defs32" /><sodipodi:namedview
   pagecolor="#ffffff"
   bordercolor="#666666"
   borderopacity="1"
   objecttolerance="10"
   gridtolerance="10"
   guidetolerance="10"
   inkscape:pageopacity="0"
   inkscape:pageshadow="2"
   inkscape:window-width="1920"
   inkscape:window-height="1031"
   id="namedview30"
   showgrid="false"
   inkscape:zoom="0.4609375"
   inkscape:cx="256"
   inkscape:cy="256"
   inkscape:window-x="0"
   inkscape:window-y="24"
   inkscape:window-maximized="1"
   inkscape:current-layer="svg28" />
<g
   id="A96_x2C__Grinding_x2C__Mortar_x2C__Bowl_x2C__Spa"
   style="fill:#262626;fill-opacity:1">
	<g
   id="g24"
   style="fill:#262626;fill-opacity:1">
		<g
   id="g22"
   style="fill:#262626;fill-opacity:1">
			<g
   id="g20"
   style="fill:#262626;fill-opacity:1">
				<path
   d="M146.808,209.506c0.345-0.096,0.69-0.187,1.032-0.292c0.319-0.099,0.633-0.212,0.949-0.318      c0.297-0.1,0.596-0.193,0.891-0.3c0.352-0.128,0.698-0.271,1.046-0.409c0.254-0.101,0.511-0.194,0.763-0.3      c0.37-0.156,0.734-0.328,1.101-0.495c0.225-0.103,0.453-0.198,0.677-0.305c0.368-0.177,0.729-0.37,1.093-0.558      c0.215-0.112,0.435-0.216,0.647-0.332c0.349-0.188,0.689-0.393,1.033-0.593c0.223-0.13,0.449-0.251,0.669-0.385      c0.278-0.169,0.55-0.353,0.824-0.529c0.279-0.179,0.563-0.352,0.838-0.538c0.036-0.024,0.07-0.051,0.105-0.075      c0.508-0.347,1.011-0.703,1.506-1.074c10.181-7.641,16.02-19.311,16.019-32.017l-0.001-18.748      c-6.857,1.758-13.146,5.326-18.283,10.464c-7.555,7.556-11.715,17.601-11.715,28.285l0.001,18.746      C146.272,209.663,146.539,209.581,146.808,209.506z"
   id="path2"
   style="fill:#262626;fill-opacity:1" />
				<path
   d="M423.059,221.718l-43.914,47.917L368.729,281H418c9.925,0,18-8.074,18-18v-24      C436,230.82,430.578,223.898,423.059,221.718z"
   id="path4"
   style="fill:#262626;fill-opacity:1" />
				<path
   d="M98.485,228.541c8.078,0,15.885-2.442,22.445-6.886l-14.05-12.381c-7.311-6.442-16.695-9.991-26.427-9.991      c-8.084,0-15.897,2.445-22.463,6.893l14.05,12.382c0.61,0.537,1.301,1.099,2.171,1.765c0.001,0.001,0.002,0.001,0.003,0.002      c2.047,1.567,4.214,2.913,6.473,4.042C86.171,227.108,92.21,228.541,98.485,228.541z"
   id="path6"
   style="fill:#262626;fill-opacity:1" />
				<path
   d="M341.601,281l86.132-93.983c7.634-8.483,7.291-21.551-0.843-29.684c-4.084-4.084-9.515-6.333-15.293-6.333      c-5.331,0-10.451,1.959-14.423,5.518l-67.317,61.841c-0.002,0.001-0.004,0.003-0.006,0.005L261.667,281H341.601z"
   id="path8"
   style="fill:#262626;fill-opacity:1" />
				<path
   d="M291,131c2.757,0,5-2.243,5-5s-2.243-5-5-5s-5,2.243-5,5S288.243,131,291,131z"
   id="path10"
   style="fill:#262626;fill-opacity:1" />
				<path
   d="M436,41c5.514,0,10-4.486,10-10s-4.486-10-10-10s-10,4.486-10,10S430.486,41,436,41z"
   id="path12"
   style="fill:#262626;fill-opacity:1" />
				<path
   d="M211,71c8.271,0,15-6.729,15-15s-6.729-15-15-15c-8.271,0-15,6.729-15,15S202.729,71,211,71z"
   id="path14"
   style="fill:#262626;fill-opacity:1" />
				<path
   d="M97.673,159.772l34.354,78.522c-0.099,0.066-0.199,0.127-0.298,0.193c-0.374,0.249-0.757,0.483-1.136,0.724      c-0.482,0.306-0.964,0.612-1.455,0.903c-0.399,0.237-0.806,0.462-1.21,0.69c-0.483,0.272-0.967,0.543-1.457,0.802      c-0.419,0.221-0.844,0.431-1.268,0.643c-0.488,0.242-0.977,0.481-1.47,0.71c-0.436,0.202-0.874,0.395-1.313,0.586      c-0.495,0.215-0.991,0.425-1.492,0.627c-0.447,0.18-0.896,0.354-1.348,0.524c-0.505,0.189-1.012,0.371-1.521,0.547      c-0.454,0.157-0.91,0.311-1.369,0.457c-0.517,0.165-1.037,0.319-1.559,0.469c-0.46,0.133-0.921,0.266-1.385,0.388      c-0.529,0.139-1.063,0.266-1.598,0.391c-0.462,0.108-0.923,0.218-1.388,0.315c-0.55,0.115-1.104,0.213-1.657,0.313      c-0.455,0.082-0.908,0.169-1.366,0.24c-0.583,0.091-1.17,0.163-1.757,0.236c-0.434,0.055-0.864,0.118-1.3,0.163      c-0.658,0.068-1.32,0.113-1.981,0.16c-0.368,0.026-0.734,0.063-1.103,0.083c-1.021,0.053-2.046,0.082-3.073,0.083      c-0.012,0-0.023,0.001-0.035,0.001c-0.001,0-0.002,0-0.003,0c-0.911,0-1.817-0.024-2.721-0.064      c-0.3-0.013-0.597-0.037-0.896-0.054c-0.606-0.036-1.211-0.076-1.813-0.129c-0.347-0.031-0.691-0.068-1.037-0.105      c-0.556-0.059-1.111-0.125-1.664-0.199c-0.353-0.047-0.705-0.097-1.057-0.151c-0.556-0.085-1.109-0.18-1.662-0.28      c-0.332-0.061-0.664-0.118-0.995-0.184c-0.621-0.124-1.238-0.263-1.854-0.406c-0.252-0.059-0.506-0.11-0.756-0.172      c-0.858-0.212-1.711-0.441-2.558-0.691c-0.194-0.057-0.385-0.124-0.578-0.183c-0.657-0.201-1.312-0.409-1.961-0.633      c-0.302-0.104-0.601-0.217-0.901-0.326c-0.539-0.196-1.077-0.396-1.611-0.608c-0.14-0.055-0.282-0.103-0.421-0.159V263      c0,9.926,8.075,18,18,18h56.71l6.129,14.008c1.638,3.744,5.293,5.979,9.133,5.992H94c-0.745,0-1.484-0.027-2.219-0.07      c-0.232-0.014-0.462-0.035-0.692-0.053c-0.509-0.039-1.016-0.085-1.519-0.144c-0.257-0.03-0.512-0.063-0.766-0.098      c-0.495-0.067-0.985-0.147-1.474-0.233c-0.23-0.041-0.462-0.079-0.69-0.124c-0.636-0.126-1.267-0.266-1.891-0.423      c-0.067-0.017-0.137-0.029-0.205-0.047c-0.689-0.178-1.371-0.377-2.045-0.592c-0.204-0.065-0.404-0.138-0.606-0.205      c-0.474-0.16-0.945-0.327-1.411-0.506c-0.231-0.088-0.461-0.18-0.69-0.272c-0.447-0.181-0.889-0.37-1.326-0.567      c-0.211-0.095-0.424-0.188-0.633-0.286c-0.533-0.252-1.06-0.517-1.58-0.793c-0.083-0.044-0.17-0.082-0.253-0.127v46.04      c0,43.285,35.215,78.5,78.5,78.5H186h150h21.5c43.285,0,78.5-35.215,78.5-78.5v-46.04c-0.083,0.045-0.17,0.083-0.254,0.128      c-0.52,0.275-1.045,0.539-1.578,0.791c-0.21,0.1-0.424,0.192-0.636,0.288c-0.437,0.196-0.877,0.386-1.322,0.565      c-0.23,0.094-0.461,0.186-0.693,0.274c-0.465,0.178-0.936,0.345-1.409,0.504c-0.202,0.068-0.403,0.141-0.607,0.206      c-0.674,0.215-1.354,0.414-2.045,0.592c-0.067,0.018-0.137,0.03-0.205,0.047c-0.624,0.157-1.255,0.297-1.891,0.423      c-0.229,0.045-0.459,0.083-0.689,0.124c-0.488,0.086-0.979,0.166-1.475,0.233c-0.254,0.035-0.509,0.067-0.765,0.098      c-0.504,0.059-1.011,0.104-1.52,0.144c-0.23,0.018-0.46,0.039-0.691,0.053c-0.735,0.043-1.475,0.07-2.22,0.07h-72H236h-69.946      c-0.016,0-0.032,0.002-0.048,0.002c1.338,0,2.698-0.27,4.003-0.84c5.06-2.215,7.366-8.11,5.153-13.17L172.54,281h59.564      l2.784-2.558L297.418,221H169.156c-0.261,0.173-0.525,0.338-0.788,0.507c-0.19,0.122-0.379,0.247-0.57,0.367      c-0.619,0.389-1.242,0.768-1.873,1.133c-0.044,0.025-0.089,0.049-0.133,0.074c-0.591,0.34-1.188,0.667-1.788,0.985      c-0.199,0.105-0.399,0.207-0.6,0.31c-0.463,0.239-0.929,0.472-1.396,0.698c-0.212,0.102-0.424,0.204-0.637,0.304      c-0.522,0.245-1.048,0.48-1.576,0.709c-0.142,0.062-0.282,0.126-0.425,0.187c-0.67,0.284-1.345,0.555-2.024,0.814      c-0.155,0.06-0.313,0.114-0.469,0.172c-0.529,0.196-1.06,0.386-1.594,0.567c-0.223,0.075-0.445,0.148-0.669,0.221      c-0.497,0.162-0.996,0.316-1.497,0.465c-0.209,0.062-0.417,0.125-0.627,0.186c-0.696,0.198-1.396,0.388-2.101,0.561      c-0.001,0-0.002,0-0.003,0.001c-0.146,0.036-0.292,0.066-0.438,0.1l-33.528-76.636c10.144-17.083,12.016-37.265,4.876-54.934      c-7.758-19.199-25.227-33.144-46.729-37.301c-3.871-0.748-7.82,0.848-10.085,4.076c-12.576,17.929-15.453,40.095-7.695,59.294      C63.831,141.292,78.876,154.392,97.673,159.772z M96.464,332.088c-0.308-2.81-0.464-5.676-0.464-8.517c0-5.522,4.478-10,10-10      c5.523,0,10,4.478,10,10c0,2.116,0.116,4.25,0.345,6.341c0.602,5.49-3.361,10.428-8.852,11.028      c-0.37,0.04-0.737,0.061-1.101,0.061C101.357,341.001,97.024,337.209,96.464,332.088z M173.429,381H226c5.523,0,10,4.477,10,10      s-4.477,10-10,10h-52.571c-25.912,0-49.99-12.875-64.408-34.442c-3.069-4.591-1.836-10.802,2.756-13.871      c4.59-3.069,10.802-1.836,13.871,2.756C136.346,371.445,154.209,381,173.429,381z M82.729,128.056      c0.508,0.556,1.031,1.1,1.57,1.629C83.76,129.156,83.236,128.613,82.729,128.056z M75.33,116.366      c0.284,0.705,0.591,1.398,0.916,2.081C75.921,117.764,75.614,117.071,75.33,116.366z M76.495,118.938      c0.256,0.52,0.515,1.037,0.794,1.543C77.011,119.975,76.751,119.458,76.495,118.938z M77.549,120.928      c0.294,0.518,0.593,1.032,0.909,1.535C78.142,121.959,77.842,121.446,77.549,120.928z M78.683,122.803      c0.345,0.534,0.697,1.063,1.067,1.579C79.38,123.865,79.026,123.337,78.683,122.803z M79.921,124.612      c0.399,0.55,0.811,1.091,1.238,1.621C80.732,125.703,80.32,125.162,79.921,124.612z M81.268,126.362      c0.456,0.559,0.926,1.107,1.412,1.642C82.193,127.469,81.723,126.921,81.268,126.362z M105.029,126.726      c0.137-0.841,0.242-1.683,0.328-2.525C105.271,125.043,105.166,125.885,105.029,126.726L105.029,126.726z M95.828,121      c-0.142,0.002-0.283,0.018-0.425,0.026C95.545,121.018,95.687,121.002,95.828,121z M91.992,121.838      c0.313-0.137,0.63-0.256,0.948-0.359C92.622,121.582,92.306,121.701,91.992,121.838z M93.295,121.383      c0.202-0.057,0.403-0.118,0.606-0.162C93.698,121.265,93.497,121.326,93.295,121.383z M94.36,121.145      c0.169-0.028,0.337-0.063,0.506-0.082C94.697,121.082,94.529,121.117,94.36,121.145z M96.438,121.018      c0.114,0.005,0.229,0.003,0.344,0.013C96.667,121.021,96.552,121.023,96.438,121.018z M97.459,121.116      c0.086,0.013,0.174,0.02,0.259,0.035C97.633,121.135,97.545,121.128,97.459,121.116z M98.458,121.315      c0.059,0.015,0.118,0.025,0.176,0.041C98.576,121.34,98.517,121.33,98.458,121.315z M99.418,121.61      c0.035,0.013,0.071,0.022,0.106,0.036C99.489,121.633,99.453,121.623,99.418,121.61z M100.338,121.997      c0.015,0.007,0.029,0.013,0.044,0.02C100.367,122.01,100.353,122.004,100.338,121.997z M86.007,131.27      C86.007,131.27,86.007,131.27,86.007,131.27v-0.002C86.007,131.268,86.007,131.269,86.007,131.27z M86.074,129.861      c0.005-0.049,0.013-0.098,0.02-0.147C86.087,129.763,86.079,129.812,86.074,129.861z M86.813,127.077      c0.026-0.063,0.055-0.123,0.083-0.185C86.867,126.954,86.839,127.015,86.813,127.077z M87.515,125.714      c0.003-0.004,0.005-0.009,0.007-0.013C87.52,125.705,87.518,125.71,87.515,125.714z M88.308,124.623      c0.059-0.07,0.118-0.139,0.179-0.208C88.426,124.484,88.366,124.553,88.308,124.623z M89.398,123.49      c0.01-0.009,0.02-0.02,0.03-0.029C89.418,123.47,89.408,123.48,89.398,123.49z M90.5,122.66c0.091-0.06,0.182-0.117,0.274-0.174      C90.682,122.543,90.59,122.601,90.5,122.66z M86.002,131.265c-0.58-0.509-1.145-1.031-1.692-1.569      C84.858,130.233,85.422,130.756,86.002,131.265z M105.41,123.599c0.057-0.655,0.1-1.31,0.126-1.964      C105.51,122.289,105.467,122.943,105.41,123.599z M105.559,120.938c0.016-0.667,0.013-1.332-0.005-1.997      C105.571,119.605,105.574,120.271,105.559,120.938z M103.609,107.641c-0.262-0.792-0.542-1.579-0.856-2.356      C103.067,106.062,103.348,106.849,103.609,107.641z M105.543,118.383c-0.034-0.856-0.091-1.71-0.179-2.561      C105.453,116.673,105.509,117.527,105.543,118.383z M105.36,115.793c-0.085-0.814-0.202-1.625-0.338-2.431      C105.158,114.169,105.274,114.979,105.36,115.793z M104.887,112.635c-0.109-0.581-0.229-1.159-0.365-1.735      C104.657,111.476,104.777,112.054,104.887,112.635z M104.317,110.072c-0.146-0.566-0.309-1.129-0.48-1.69      C104.009,108.942,104.171,109.505,104.317,110.072z"
   id="path16"
   style="fill:#262626;fill-opacity:1" />
				<path
   d="M476,471H326v-30H196v30H36c-5.522,0-10,4.477-10,10s4.478,10,10,10h440c5.522,0,10-4.477,10-10S481.522,471,476,471z"
   id="path18"
   style="fill:#262626;fill-opacity:1" />
			</g>
		</g>
	</g>
</g>
<g
   id="Layer_1">
</g>
</svg>