<?xml version="1.0" encoding="UTF-8" standalone="no"?>
<svg
   xmlns:dc="http://purl.org/dc/elements/1.1/"
   xmlns:cc="http://creativecommons.org/ns#"
   xmlns:rdf="http://www.w3.org/1999/02/22-rdf-syntax-ns#"
   xmlns:svg="http://www.w3.org/2000/svg"
   xmlns="http://www.w3.org/2000/svg"
   xmlns:sodipodi="http://sodipodi.sourceforge.net/DTD/sodipodi-0.dtd"
   xmlns:inkscape="http://www.inkscape.org/namespaces/inkscape"
   viewBox="0 0 64 64"
   version="1.1"
   id="svg11"
   sodipodi:docname="infoiconferdizzimo.svg"
   inkscape:version="0.92.5 (2060ec1f9f, 2020-04-08)">
  <metadata
     id="metadata17">
    <rdf:RDF>
      <cc:Work
         rdf:about="">
        <dc:format>image/svg+xml</dc:format>
        <dc:type
           rdf:resource="http://purl.org/dc/dcmitype/StillImage" />
      </cc:Work>
    </rdf:RDF>
  </metadata>
  <defs
     id="defs15" />
  <sodipodi:namedview
     pagecolor="#ffffff"
     bordercolor="#666666"
     borderopacity="1"
     objecttolerance="10"
     gridtolerance="10"
     guidetolerance="10"
     inkscape:pageopacity="0"
     inkscape:pageshadow="2"
     inkscape:window-width="1920"
     inkscape:window-height="1031"
     id="namedview13"
     showgrid="false"
     inkscape:zoom="14.75"
     inkscape:cx="46.091607"
     inkscape:cy="19.58905"
     inkscape:window-x="0"
     inkscape:window-y="24"
     inkscape:window-maximized="1"
     inkscape:current-layer="c" />
  <g
     id="a" />
  <g
     id="b" />
  <g
     id="c">
    <path
       inkscape:connector-curvature="0"
       style="fill:#262626"
       id="id_106"
       d="m 41,20 c 0.254,0 0.5,0.029 0.752,0.038 C 40.323,10.821 32.467,4 23,4 12.523,4 4,12.523 4,23 c 0,5.875 2.67,11.332 7.326,14.972 0.265,0.207 0.408,0.533 0.38,0.868 -0.027,0.335 -0.22,0.634 -0.515,0.796 L 6.893,42 H 20.05 c -0.016,-0.334 -0.051,-0.662 -0.051,-1 0,-11.58 9.42,-21 21,-21 z m -16,5 h -4 c -0.552,0 -1,-0.448 -1,-1 0,-0.552 0.448,-1 1,-1 h 4 c 0.552,0 1,0.448 1,1 0,0.552 -0.448,1 -1,1 z m 8,-8 h -6 c -0.552,0 -1,-0.448 -1,-1 0,-0.552 0.448,-1 1,-1 h 6 c 0.552,0 1,0.448 1,1 0,0.552 -0.448,1 -1,1 z M 21,11 h 12 c 0.552,0 1,0.448 1,1 0,0.552 -0.448,1 -1,1 H 21 c -0.552,0 -1,-0.448 -1,-1 0,-0.552 0.448,-1 1,-1 z m -9,0 h 5 c 0.552,0 1,0.448 1,1 0,0.552 -0.448,1 -1,1 h -5 c -0.552,0 -1,-0.448 -1,-1 0,-0.552 0.448,-1 1,-1 z m 0,4 h 11 c 0.552,0 1,0.448 1,1 0,0.552 -0.448,1 -1,1 H 12 c -0.552,0 -1,-0.448 -1,-1 0,-0.552 0.448,-1 1,-1 z m 0,4 h 18 c 0.552,0 1,0.448 1,1 0,0.552 -0.448,1 -1,1 H 12 c -0.552,0 -1,-0.448 -1,-1 0,-0.552 0.448,-1 1,-1 z m 0,4 h 5 c 0.552,0 1,0.448 1,1 0,0.552 -0.448,1 -1,1 h -5 c -0.552,0 -1,-0.448 -1,-1 0,-0.552 0.448,-1 1,-1 z m -1,5 c 0,-0.552 0.448,-1 1,-1 h 9 c 0.552,0 1,0.448 1,1 0,0.552 -0.448,1 -1,1 h -9 c -0.552,0 -1,-0.448 -1,-1 z" />
    <circle
       style="fill:#262626"
       id="id_107"
       r="1"
       cy="53"
       cx="41" />
    <path
       inkscape:connector-curvature="0"
       style="fill:#262626"
       id="id_108"
       d="M 52.291,56.838 C 52.264,56.503 52.407,56.177 52.672,55.97 57.329,52.333 60,46.877 60,41 60,30.523 51.477,22 41,22 30.523,22 22,30.523 22,41 22,51.477 30.523,60 41,60 H 57.107 L 52.805,57.634 C 52.511,57.472 52.317,57.173 52.29,56.838 Z M 41,56 c -1.654,0 -3,-1.346 -3,-3 0,-1.654 1.346,-3 3,-3 1.654,0 3,1.346 3,3 0,1.654 -1.346,3 -3,3 z M 48.122,38.762 C 47.666,39.72 46.933,40.563 45.88,41.341 44.685,42.223 44,43.557 44,45.001 v 1 c 0,1.654 -1.346,3 -3,3 -1.654,0 -3,-1.346 -3,-3 v -1 c 0,-3.221 1.537,-6.335 4.112,-8.332 0.413,-0.32 0.678,-0.665 0.789,-1.025 0.2,-0.653 0.097,-1.302 -0.291,-1.827 -0.382,-0.518 -0.967,-0.815 -1.606,-0.816 -0.872,0 -1.644,0.513 -1.879,1.249 -0.077,0.241 -0.119,0.478 -0.125,0.704 -0.036,1.525 -1.021,2.728 -2.453,2.995 C 35.661,38.115 34.763,37.882 34.083,37.31 33.385,36.725 32.99,35.856 33,34.926 l 0.002,-0.125 c 0.106,-4.314 3.666,-7.799 7.95,-7.799 h 0.066 c 2.754,0.007 5.279,1.407 6.753,3.747 1.508,2.392 1.635,5.313 0.349,8.015 z" />
  </g>
</svg>
