<?xml version="1.0" encoding="UTF-8" standalone="no"?>
<!-- Generator: Adobe Illustrator 23.0.2, SVG Export Plug-In . SVG Version: 6.00 Build 0)  -->

<svg
   xmlns:dc="http://purl.org/dc/elements/1.1/"
   xmlns:cc="http://creativecommons.org/ns#"
   xmlns:rdf="http://www.w3.org/1999/02/22-rdf-syntax-ns#"
   xmlns:svg="http://www.w3.org/2000/svg"
   xmlns="http://www.w3.org/2000/svg"
   xmlns:sodipodi="http://sodipodi.sourceforge.net/DTD/sodipodi-0.dtd"
   xmlns:inkscape="http://www.inkscape.org/namespaces/inkscape"
   version="1.1"
   id="Layer_1"
   x="0px"
   y="0px"
   viewBox="0 0 500.0345 192.7645"
   enable-background="new 0 0 500.0345 192.7645"
   xml:space="preserve"
   sodipodi:docname="meal.svg"
   inkscape:version="0.92.5 (2060ec1f9f, 2020-04-08)"><metadata
   id="metadata79"><rdf:RDF><cc:Work
       rdf:about=""><dc:format>image/svg+xml</dc:format><dc:type
         rdf:resource="http://purl.org/dc/dcmitype/StillImage" /></cc:Work></rdf:RDF></metadata><defs
   id="defs77">
	
	
	
	
	
	
	
	
	
	
	
	
	
	
	
	
	
	
	
	
	
	
	
	
	
	
	
	
	
	
	
	
	
	
	
</defs><sodipodi:namedview
   pagecolor="#ffffff"
   bordercolor="#666666"
   borderopacity="1"
   objecttolerance="10"
   gridtolerance="10"
   guidetolerance="10"
   inkscape:pageopacity="0"
   inkscape:pageshadow="2"
   inkscape:window-width="1920"
   inkscape:window-height="1031"
   id="namedview75"
   showgrid="false"
   inkscape:zoom="2.5438246"
   inkscape:cx="172.07477"
   inkscape:cy="109.60151"
   inkscape:window-x="0"
   inkscape:window-y="24"
   inkscape:window-maximized="1"
   inkscape:current-layer="Layer_1" />
<path
   inkscape:connector-curvature="0"
   id="path2"
   d="m 326.6432,169.2247 c -0.3037,0.021 -0.6035,0.0308 -0.9004,0.0308 -0.6453,10e-5 -1.2763,-0.0621 -1.8982,-0.1545 v 2.277 h -41.8867 v -2.1397 c -0.125,0.004 -0.2475,0.0182 -0.3733,0.0182 -0.3008,0 -0.6025,-0.0107 -0.9072,-0.0313 -3.4688,-0.2412 -6.6309,-1.8169 -8.9102,-4.4365 -0.2887,-0.3319 -0.5581,-0.6759 -0.8093,-1.03 v 27.6193 h 11 v -14 h 41.8867 v 14 h 11 v -25.8547 c -2.2066,2.1739 -5.0785,3.4844 -8.2014,3.7014 z"
   style="fill:#262626;fill-opacity:1" /><path
   inkscape:connector-curvature="0"
   id="path4"
   d="m 277.8499,77.5936 -6.2744,4.8631 c -0.1992,0.1544 -0.4059,0.2977 -0.6176,0.4332 v 11.0369 h 6.892 z"
   style="fill:#262626;fill-opacity:1" /><polygon
   id="polygon6"
   points="334.8447,67.3076 329.4661,68.2944 329.4661,71.1554 334.8447,71.1554 "
   style="fill:#262626;fill-opacity:1" /><path
   inkscape:connector-curvature="0"
   id="path8"
   d="m 329.4661,93.9268 h 5.3785 V 88.487 c -1.5477,1.5621 -3.361,2.8755 -5.3785,3.8822 z"
   style="fill:#262626;fill-opacity:1" /><polygon
   id="polygon10"
   points="278.3318,55.7115 270.9579,55.7115 270.9579,61.4269 "
   style="fill:#262626;fill-opacity:1" /><polygon
   id="polygon12"
   points="170.9747,69.5719 170.9579,69.5647 170.9579,69.5719 "
   style="fill:#262626;fill-opacity:1" /><path
   inkscape:connector-curvature="0"
   id="path14"
   d="m 223.8447,171.378 h -3.5497 c -1.9118,2.1389 -4.6819,3.4949 -7.7697,3.4949 -3.0883,0 -5.8589,-1.3561 -7.7711,-3.4949 h -3.8576 c -1.9118,2.1389 -4.6819,3.4949 -7.7697,3.4949 -3.0878,0 -5.8579,-1.3561 -7.7697,-3.4949 h -3.3992 v -17.7852 h -11 v 37.7852 h 11 v -14 h 41.8867 v 14 h 11 v -37.7852 h -11 z"
   style="fill:#262626;fill-opacity:1" /><path
   inkscape:connector-curvature="0"
   id="path16"
   d="M 234.8447,70.5726 V 55.7115 h -11 v 3.9552 c 3.5923,1.9647 7.5003,6.2655 11,10.9059 z"
   style="fill:#262626;fill-opacity:1" /><path
   inkscape:connector-curvature="0"
   id="path18"
   d="m 184.9943,153.5928 v 10.8464 c 0,4.4912 3.6407,8.1338 8.1329,8.1338 4.4921,0 8.1328,-3.6426 8.1328,-8.1338 v -10.8464 z"
   style="fill:#262626;fill-opacity:1" /><path
   inkscape:connector-curvature="0"
   id="path20"
   d="m 204.3909,164.4392 c 0,4.4912 3.6426,8.1338 8.1348,8.1338 4.4902,0 8.1328,-3.6426 8.1328,-8.1338 v -10.8464 h -16.2676 z"
   style="fill:#262626;fill-opacity:1" /><path
   inkscape:connector-curvature="0"
   id="path22"
   d="m 202.7429,68.6392 c -4.5898,0 -8.8594,-1.3949 -12.4094,-3.7816 1.2992,4.1107 2.2125,8.4843 0.5965,12.4887 -0.2913,0.7219 -0.6086,1.3785 -0.9422,1.987 -1.5223,5.7703 -5.5243,10.6624 -11.0172,13.2482 v 1.3452 h 29.8106 c -1.3546,-1.2549 -2.2654,-2.9921 -2.4585,-4.9716 -0.2031,-2.0732 0.4141,-4.1016 1.7373,-5.7114 1.3232,-1.6094 3.1934,-2.6074 5.2666,-2.8101 l 8.7373,-0.8535 c -1.2852,-1.7041 -2.3743,-3.0295 -3.2418,-4.0058 l 0.5795,-2.7345 c 1.7759,1.7746 4.2839,4.9306 6.8821,8.6392 l -12.7334,1.2437 c -3.0225,0.2954 -5.2344,2.9858 -4.9385,6.0088 0.2773,2.8418 2.6699,4.9658 5.4668,4.9658 0.1787,0 0.3604,-0.0088 0.542,-0.0264 l 21.75,-2.125 c 1.8789,-0.1836 3.5322,-1.3184 4.3799,-3.0054 0.8477,-1.6875 0.7705,-3.6914 -0.2051,-5.3081 -3.4863,-5.7842 -12.3037,-19.5107 -18.8525,-22.041 -0.662,-0.2555 -1.3442,-0.3702 -2.0156,-0.3676 -4.0932,4.7786 -10.1641,7.8154 -16.9344,7.8154 z"
   style="fill:#262626;fill-opacity:1" /><path
   inkscape:connector-curvature="0"
   id="path24"
   d="m 180.9691,71.1554 h 8.437 c -0.3019,-3.0019 -1.423,-6.1405 -2.4274,-9.0584 -3.2037,-3.2051 -5.4339,-7.3799 -6.2195,-12.0391 -3.1238,3.3669 -4.9164,8.6464 -1.1973,17.3474 0.5839,1.3663 1.0474,2.6121 1.4072,3.7501 z"
   style="fill:#262626;fill-opacity:1" /><path
   inkscape:connector-curvature="0"
   id="path26"
   d="m 202.7429,66.3394 c 11.0457,0 20,-8.9543 20,-20 0,-11.0457 -8.9543,-20 -20,-20 -11.0457,0 -20,8.9543 -20,20 0,11.0456 8.9542,20 20,20 z m 13.4605,-16.3756 c 0,0 -8.8784,18.5803 -22.5543,2.9373 1e-4,-10e-5 13.9003,2.5937 22.5543,-2.9373 z"
   style="fill:#262626;fill-opacity:1" /><path
   inkscape:connector-curvature="0"
   id="path28"
   d="m 153.6619,39.2342 7.4948,20.9413 c 0.5146,1.4365 1.6025,2.5952 3.0049,3.1982 l 13.676,5.8859 c -0.1244,-0.3099 -0.2509,-0.6223 -0.3911,-0.9503 -2.0883,-4.8859 -2.5659,-8.8548 -2.0811,-12.0885 l -4.6579,-2.0048 -7.6934,-21.4976 c -0.7405,-2.0671 -2.5912,-3.4114 -4.6399,-3.6148 l 1.3047,-2.8047 2.2977,-4.9397 4.5886,2.1344 3.4378,-7.3911 c 2.3529,1.6369 4.7062,3.618 6.9343,6.0175 0.6899,0.7427 1.6265,1.1187 2.5659,1.1187 0.8521,0 1.7065,-0.3096 2.3804,-0.9351 1.4165,-1.3154 1.4985,-3.5303 0.1836,-4.9463 -13.81,-14.872 -31.3183,-15.9106 -32.0571,-15.9477 -1.918,-0.083 -3.5625,1.3853 -3.665,3.311 -0.1016,1.9263 1.3794,3.5723 3.3057,3.6797 0.0779,0.0045 4.081,0.2673 9.5465,2.1924 l -3.6227,7.7885 4.5885,2.1343 -2.5891,5.5662 -1.5322,3.2939 c -0.0199,0.0068 -0.04,0.011 -0.0599,0.0181 -2.8594,1.0234 -4.3486,4.1714 -3.3252,7.0317 l 0.046,0.1285 -1.8006,3.871 -0.2089,0.449 0.4434,0.2063 1.3701,0.6375 z m 11.9337,-18.3979 -2.7753,-1.2908 2.8388,-6.103 c 0.8763,0.4703 1.7635,0.9865 2.6555,1.5477 z m -7.3638,-3.4248 2.8431,-6.1127 c 0.9067,0.3641 1.8439,0.7771 2.8,1.2371 l -2.8682,6.1663 z"
   style="fill:#262626;fill-opacity:1" /><path
   inkscape:connector-curvature="0"
   id="path30"
   d="m 460.1269,19.9177 c 0,0 2.0729,22.8616 18.6448,30.0857 16.5719,7.2241 24.7344,-7.276 19.8677,-4.9838 -4.8667,2.2922 -12.2625,1.963 -19.4866,-16.5378 C 473.146,13.0984 464.3226,9.2586 456.3925,9.2705 c 1.9783,3.1413 3.247,6.7126 3.6799,10.4438 0.0149,0.0695 0.0455,0.1315 0.0545,0.2034 z"
   style="fill:#262626;fill-opacity:1" /><path
   inkscape:connector-curvature="0"
   id="path32"
   d="m 400.0889,129.2932 c 0.2106,7.5605 0.2123,16.3209 0.2123,26.2996 0,4.6777 -0.208,8.0298 -0.6348,10.2471 -0.4911,2.5504 -1.4373,3.8987 -2.4651,4.5778 l 2.8292,12.9255 c 1.0747,4.9087 5.4204,8.2573 10.2471,8.2573 0.7437,-5e-4 1.499,-0.0796 2.2554,-0.2451 5.665,-1.2402 9.252,-6.8374 8.0122,-12.5024 l -5.5184,-25.2106 -3.7123,1.0764 z"
   style="fill:#262626;fill-opacity:1" /><path
   inkscape:connector-curvature="0"
   id="path34"
   d="m 456.7957,29.6558 c 3.9146,-11.8285 -2.4728,-24.592 -14.2643,-28.5062 -11.7893,-3.9158 -24.5233,2.494 -28.4382,14.325 -3.9126,11.8272 2.473,24.5909 14.2643,28.5051 11.789,3.9178 24.5235,-2.4959 28.4382,-14.3239 z m -36.2038,0.173 c 0,0 13.938,4.9928 23.8038,0.7142 0,0 -12.2677,17.7308 -23.8038,-0.7142 z"
   style="fill:#262626;fill-opacity:1" /><path
   inkscape:connector-curvature="0"
   id="path36"
   d="m 371.8941,82.3154 c -1.0936,-2.0809 -1.3108,-4.4629 -0.6132,-6.7073 0.1998,-0.6421 0.4738,-1.2416 0.7986,-1.8027 h -2.0002 c -0.002,-1.0535 -0.1984,-1.9829 -0.5013,-2.6224 l 3.1031,-4.2068 c 0.7089,0.5903 1.5502,1.0435 2.5013,1.2933 l 4.4172,1.1595 c 0.3966,-0.0031 0.796,0.0118 1.1991,0.0635 0.5046,0.0648 1.0085,0.1742 1.4999,0.3268 l 6.5516,2.038 26.3322,6.9122 c 0.5439,0.1426 1.0981,0.2129 1.6504,0.2129 0.224,0 0.4463,-0.0247 0.6686,-0.0477 l 21.8292,-20.423 c 1.9213,-1.7984 4.5229,-2.6376 7.1353,-2.3024 2.0245,0.2598 3.9072,1.2245 5.3029,2.7161 1.6061,1.7164 2.4471,3.9559 2.3691,6.305 -0.078,2.3495 -1.0664,4.5275 -2.7828,6.1332 l -17.382,16.2623 c 2.7903,10.3004 3.874,19.1495 4.1534,26.4568 l -38.6139,3.7872 c 0.084,1.0314 0.1578,2.1023 0.2249,3.2002 l 13.2614,30.0365 10.6221,-3.0796 v 3.1238 1.3141 h 2.334 v 38.6661 h 11 v -14 h 40.9199 c 0.6309,4.6757 1.3282,9.3438 2.1329,14 h 11.1738 c -7.8887,-44.2188 -7.6485,-89.5196 0.7734,-133.6661 -3.6011,-0.6875 -7.2031,-1.373 -10.8047,-2.0605 -4.1136,21.5627 -6.3223,43.3934 -6.6489,65.2449 -0.0381,2.5542 -0.0458,5.1085 -0.0325,7.6628 0.0229,4.3852 0.1123,8.7701 0.2869,13.1527 h -17.728 -10.7733 l 10.1215,-2.9345 c 2.3752,-0.4003 4.7045,-1.0441 6.8075,-1.9736 l 0.6904,-0.2002 -0.0438,-0.1003 c 6.7545,-3.2513 10.8636,-9.6042 5.9218,-20.3821 -15.7578,-34.3669 -2.4756,-40.8142 -6.3936,-53.9966 -3.6808,-12.3917 -13.5153,-15.7689 -21.9247,-12.4829 -0.7271,0.1624 -1.4393,0.4456 -2.1023,0.8725 l -3.2854,2.1152 -20.3279,13.0875 -35.1245,-9.2204 6.5955,-8.9416 -1.8778,-1.3851 -7.1577,9.7036 c -3.3652,-0.7019 -6.7256,1.3429 -7.608,4.7057 -0.4414,1.6821 -0.1769,3.3806 0.6028,4.7913 l -3.9791,5.3943 c -1.1518,0.5138 -2.5561,1.6889 -3.85,3.2878 h -11.3306 c 0,7.6075 4.894,14.0565 11.6998,16.4131 v 3.0869 h 11.3656 v -3.0869 c 1.8013,-0.6238 3.4631,-1.5413 4.9414,-2.6842 l -2.9244,-0.9097 c -2.2445,-0.6976 -4.0832,-2.2283 -5.1769,-4.3092 z m 103.4713,70.1493 c 0.4297,6.2325 1.0117,12.4551 1.75,18.6661 H 436.9552 V 152.4647 Z M 367.7839,71.8255 c 0.2915,0.215 0.1301,0.9734 -0.3417,1.9799 h -2.4951 c 1.2714,-1.4376 2.4281,-2.2814 2.8368,-1.9799 z"
   style="fill:#262626;fill-opacity:1" /><path
   inkscape:connector-curvature="0"
   id="path38"
   d="m 449.7838,69.684 c 2.6216,-2.4524 2.7585,-6.5656 0.3056,-9.1872 -2.4529,-2.6216 -6.5666,-2.7581 -9.1872,-0.3056 l -24.278,22.7143 -35.009,-10.8902 c -3.4325,-1.0641 -7.0717,0.8476 -8.1378,4.2759 -1.066,3.4279 0.8481,7.0712 4.2764,8.1373 l 38.619,12.0131 c 0.3636,0.1131 0.7334,0.1931 1.1044,0.2407 1.9014,0.244 3.8383,-0.3641 5.2671,-1.7009 z"
   style="fill:#262626;fill-opacity:1" /><path
   inkscape:connector-curvature="0"
   id="path40"
   d="m 0.7734,191.1308 h 11.1738 c 0.8047,-4.6563 1.502,-9.3243 2.1329,-14 H 55 v 14 h 11 v -38.6661 h 2.334 v -11 H 17.1992 C 18.3457,112.6893 16.2246,83.8143 10.8047,55.4042 7.2031,56.0918 3.6011,56.7772 0,57.4647 8.4219,101.6112 8.6621,146.9121 0.7734,191.1308 Z M 16.5898,152.4647 H 55 v 18.6661 H 14.8398 c 0.7383,-6.211 1.3203,-12.4336 1.75,-18.6661 z"
   style="fill:#262626;fill-opacity:1" /><path
   inkscape:connector-curvature="0"
   id="path42"
   d="m 43.8357,137.9378 c 0.4956,0.0598 0.9972,0.0997 1.5089,0.0997 h 36.7197 l -0.8945,41.9604 c -0.147,6.9023 5.3286,12.6167 12.2305,12.7637 0.0913,0.002 0.1812,0.003 0.272,0.003 6.7793,-5e-4 12.3467,-5.4229 12.4917,-12.2334 l 0.2416,-11.3351 c -1.1399,1.1736 -2.2986,1.8406 -3.6738,1.8406 -4.8223,0 -5.2051,-6.6934 -5.2051,-15.4438 0,-17.8416 0.0015,-31.8166 1.2051,-41.9221 -1.2476,-0.41 -2.5602,-0.6332 -3.8984,-0.6332 H 58.0852 c 0.0272,-10.62 1.9533,-21.6517 3.8599,-31.2645 L 48.8636,77.9309 c -5.4482,-1.6011 -8.5801,-7.3364 -6.9795,-12.7852 1.2803,-4.3574 5.3418,-7.4004 9.8779,-7.4004 0.9814,0 1.96,0.1416 2.9092,0.4204 l 9.9854,2.9329 c -0.9759,-6.4781 -4.512,-12.057 -10.0952,-13.4483 -8.5371,-2.129 -20.9121,2.5078 -25.9473,17.1503 -6.8047,20.1739 -8.2676,33.3047 -5.6816,55.5196 2.8571,14.7028 12.3058,17.3564 20.9032,17.6176 z"
   style="fill:#262626;fill-opacity:1" /><path
   inkscape:connector-curvature="0"
   id="path44"
   d="m 101.0067,44.1767 c -1.2409,-0.7033 -3.3525,-1.1666 -5.7502,-1.1666 -3.82,0 -6.9167,1.1752 -6.9167,2.625 0,1.4497 3.0967,4.5 6.9167,4.5 3.1583,0 5.8165,-2.0833 6.6446,-3.625 h 4.1514 l 2.4339,-2.3334 z M 90.194,45.4475 c 0,-0.6558 2.2665,-1.1875 5.0625,-1.1875 2.7959,0 5.0625,0.5317 5.0625,1.1875 0,0.6558 -2.2666,1.1875 -5.0625,1.1875 -2.7959,0 -5.0625,-0.5316 -5.0625,-1.1875 z"
   style="fill:#262626;fill-opacity:1" /><path
   inkscape:connector-curvature="0"
   id="path46"
   d="m 131.569,46.51 v -2.3334 h -5.019 c 0.4526,0.7399 0.7977,1.5247 1.0461,2.3334 z"
   style="fill:#262626;fill-opacity:1" /><path
   inkscape:connector-curvature="0"
   id="path48"
   d="m 44.0912,65.7937 c -1.2451,4.2393 1.1826,8.6851 5.4209,9.9302 l 35.75,10.5 c 0.7432,0.2183 1.502,0.3242 2.2539,0.3242 2.0352,0 4.0273,-0.7773 5.5371,-2.2251 l 30.25,-29 c 3.1895,-3.0576 3.2959,-8.1216 0.2393,-11.311 -3.0576,-3.1899 -8.1211,-3.2964 -11.3115,-0.2388 L 85.3256,69.5666 54.0219,60.3723 c -4.2393,-1.2471 -8.6856,1.1816 -9.9307,5.4214 z"
   style="fill:#262626;fill-opacity:1" /><path
   inkscape:connector-curvature="0"
   id="path50"
   d="M 64.5026,46.3095 C 76.5686,49.2779 88.7575,41.903 91.7262,29.8361 94.695,17.7691 87.3189,5.581 75.2529,2.6124 63.185,-0.3565 50.9979,7.0188 48.0292,19.0858 45.0605,31.1527 52.4348,43.3406 64.5026,46.3095 Z M 86.153,31.6344 c 0,0 -11.1752,17.3473 -22.7919,0.0678 0,0 13.4898,4.3361 22.7919,-0.0678 z"
   style="fill:#262626;fill-opacity:1" /><path
   inkscape:connector-curvature="0"
   id="path52"
   d="m 271.7363,153.5928 -0.137,1.9694 c -0.3838,5.5098 3.7725,10.2866 9.2822,10.6699 0.2363,0.0161 0.4697,0.0244 0.7031,0.0244 5.207,-5e-4 9.5996,-4.0337 9.9658,-9.3066 l 0.2335,-3.3571 z"
   style="fill:#262626;fill-opacity:1" /><path
   inkscape:connector-curvature="0"
   id="path54"
   d="m 315.533,153.5928 0.2333,3.3566 c 0.3828,5.5093 5.1621,9.6587 10.6689,9.2827 5.5098,-0.3833 9.666,-5.1602 9.2822,-10.6694 l -0.137,-1.9698 H 315.533 Z"
   style="fill:#262626;fill-opacity:1" /><path
   inkscape:connector-curvature="0"
   id="path56"
   d="m 326.1585,38.5677 c 0,-11.3218 -9.1782,-20.5 -20.5,-20.5 -11.3218,0 -20.5,9.1782 -20.5,20.5 0,11.3218 9.1782,20.5 20.5,20.5 11.3218,0 20.5,-9.1782 20.5,-20.5 z m -12.4217,1.1461 c 0,0 -8.8784,18.5803 -22.5543,2.9373 0,-10e-5 13.9003,2.5937 22.5543,-2.9373 z"
   style="fill:#262626;fill-opacity:1" /><path
   inkscape:connector-curvature="0"
   id="path58"
   d="m 245.6849,54.6447 c -2.1689,2.127 -2.2031,5.6094 -0.0762,7.7778 l 16.833,17.1665 c 1.0703,1.0918 2.4951,1.6494 3.9287,1.6494 1.1826,0 2.3701,-0.3799 3.3672,-1.1528 l 11.1127,-8.6133 v 22.4545 h 30.8385 v -1.3452 c -7.0781,-3.332 -11.7002,-10.4868 -11.7002,-18.4263 v -3 h 26.4779 v -5.3606 l 12.652,-2.3215 c 1.5029,-0.2759 2.8438,-1.1147 3.75,-2.3452 l 19.5,-26.5 c 1.9639,-2.6689 1.3916,-6.4248 -1.2773,-8.3887 -2.6689,-1.9648 -6.4238,-1.3926 -8.3887,1.2764 l -18.0898,24.584 -12.578,2.308 c -4.1478,4.2867 -9.9537,6.9595 -16.3758,6.9595 -6.0851,0 -11.6163,-2.4008 -15.709,-6.2989 h -3.1005 c -0.2155,0 -0.428,0.0125 -0.6376,0.0347 -1.2679,-0.0646 -2.563,0.2829 -3.645,1.1217 L 266.8686,68.3922 253.4623,54.7213 c -0.3134,-0.3196 -0.6624,-0.5782 -1.0261,-0.8051 l 1.8011,-2.4252 6.7983,-9.1541 4.0625,3.017 4.8598,-6.5434 c 1.111,1.1699 2.1973,2.4528 3.2397,3.8451 l 2.338,-3.417 2.4923,-1.7945 C 267.6277,24.2228 253.9866,20.5474 253.3457,20.3817 c -1.8677,-0.4844 -3.769,0.6362 -4.2583,2.5024 -0.4888,1.8662 0.6294,3.7773 2.4941,4.2715 0.0755,0.0201 3.9427,1.0862 8.9066,4.0758 l -5.121,6.8959 4.0629,3.0173 -7.009,9.4377 -1.9206,2.5862 c -1.6912,-0.3003 -3.4962,0.1824 -4.8155,1.4762 z m 19,-12.0886 -2.4571,-1.8246 4.0129,-5.4035 c 0.7633,0.6377 1.528,1.3224 2.2883,2.0524 z m -6.52,-4.8418 4.0191,-5.4122 c 0.8145,0.5399 1.6492,1.1339 2.4928,1.7775 l -4.0545,5.4595 z"
   style="fill:#262626;fill-opacity:1" /><path
   inkscape:connector-curvature="0"
   id="path60"
   d="m 378.9673,153.5928 h -11.1754 v 37.8719 h 14.9453 l 8e-4,-34.7677 c -1.3967,-1.7561 -2.7799,-3.1042 -3.7707,-3.1042 z"
   style="fill:#262626;fill-opacity:1" /><path
   inkscape:connector-curvature="0"
   id="path62"
   d="m 115.0891,156.6985 -8e-4,34.7662 h 14.9472 v -37.8719 h -11.1747 c -0.9912,0 -2.3748,1.3489 -3.7717,3.1057 z"
   style="fill:#262626;fill-opacity:1" /><path
   inkscape:connector-curvature="0"
   id="path64"
   d="m 100.5268,155.593 c 0,30.666 9,-5 18.3335,-5 2.3344,0 257.7728,0 260.1073,0 9.334,0 18.334,35.666 18.334,5 0,-42.834 -0.667,-58.666 -11.667,-58.666 -4.7861,0 -268.6547,0 -273.4409,0 -11,0 -11.6669,15.832 -11.6669,58.666 z"
   style="fill:#262626;fill-opacity:1" /><path
   inkscape:connector-curvature="0"
   id="path66"
   d="m 314.6887,93.6554 h 11.3656 v -3.0869 c 6.8051,-2.3566 11.6999,-8.8056 11.6999,-16.4131 h -34.7653 c 0,7.6075 4.894,14.0565 11.6998,16.4131 z"
   style="fill:#262626;fill-opacity:1" /><path
   inkscape:connector-curvature="0"
   id="path68"
   d="m 153.776,86.0772 c -1.929,-0.4402 -4.8878,-0.7831 -8.426,-1.0282 -4.2725,-3.1923 -11.4537,-8.2422 -13.4072,-7.6677 -2.8333,0.8334 -4,2 -7.8333,2.1667 -2.3785,0.1035 -6.0379,3.157 -8.4748,5.4611 -6.6599,0.4332 -11.4419,1.1994 -11.4419,2.2998 0,3.6299 11.6406,6.5724 26,6.5724 12.8043,0 23.4391,-2.3405 25.594,-5.4208 -0.7324,-0.742 -1.4015,-1.5409 -2.0108,-2.3833 z m -22.7498,-5.7791 c 0.5522,0 1,0.4478 1,1 0,0.5523 -0.4478,1 -1,1 -0.5523,0 -1,-0.4477 -1,-1 0,-0.5523 0.4477,-1 1,-1 z m -4.2084,1.8333 c 0.5523,0 1,0.4478 1,1 0,0.5523 -0.4477,1 -1,1 -0.5522,0 -1,-0.4477 -1,-1 0,-0.5523 0.4478,-1 1,-1 z m -3.7916,-0.9167 c 0.5522,0 1,0.4477 1,1 0,0.5522 -0.4478,1 -1,1 -0.5523,0 -1,-0.4478 -1,-1 0,-0.5523 0.4477,-1 1,-1 z m 7.1666,7.9584 c -12.3228,0 -22.3125,-0.6716 -22.3125,-1.5 0,-0.3987 2.3185,-0.7608 6.0929,-1.0295 -0.5346,0.5471 -0.8637,0.9045 -0.8637,0.9045 0,0 8.6667,0.5833 16.2501,0.5833 7.5834,0 19.2499,-0.5829 19.2499,-0.5829 0,0 -0.3909,-0.3105 -1.045,-0.8163 3.0883,0.2574 4.9408,0.5846 4.9408,0.941 0,0.8283 -9.9896,1.4999 -22.3125,1.4999 z"
   style="fill:#262626;fill-opacity:1" /><path
   inkscape:connector-curvature="0"
   id="path70"
   d="m 164.6054,93.6554 h 11.3656 v -3.0869 c 6.8051,-2.3566 11.6998,-8.8056 11.6998,-16.4131 h -34.7653 c 0,7.6075 4.8941,14.0565 11.6999,16.4131 z"
   style="fill:#262626;fill-opacity:1" />
</svg>