<?xml version="1.0" encoding="UTF-8" standalone="no"?>
<!-- Generator: Adobe Illustrator 23.0.2, SVG Export Plug-In . SVG Version: 6.00 Build 0)  -->

<svg
   xmlns:dc="http://purl.org/dc/elements/1.1/"
   xmlns:cc="http://creativecommons.org/ns#"
   xmlns:rdf="http://www.w3.org/1999/02/22-rdf-syntax-ns#"
   xmlns:svg="http://www.w3.org/2000/svg"
   xmlns="http://www.w3.org/2000/svg"
   xmlns:sodipodi="http://sodipodi.sourceforge.net/DTD/sodipodi-0.dtd"
   xmlns:inkscape="http://www.inkscape.org/namespaces/inkscape"
   version="1.1"
   id="Layer_1"
   x="0px"
   y="0px"
   viewBox="0 0 242.1475 280"
   enable-background="new 0 0 242.1475 280"
   xml:space="preserve"
   sodipodi:docname="1178911411621881304.svg"
   inkscape:version="0.92.5 (2060ec1f9f, 2020-04-08)"><metadata
   id="metadata31"><rdf:RDF><cc:Work
       rdf:about=""><dc:format>image/svg+xml</dc:format><dc:type
         rdf:resource="http://purl.org/dc/dcmitype/StillImage" /></cc:Work></rdf:RDF></metadata><defs
   id="defs29" /><sodipodi:namedview
   pagecolor="#ffffff"
   bordercolor="#666666"
   borderopacity="1"
   objecttolerance="10"
   gridtolerance="10"
   guidetolerance="10"
   inkscape:pageopacity="0"
   inkscape:pageshadow="2"
   inkscape:window-width="1558"
   inkscape:window-height="938"
   id="namedview27"
   showgrid="false"
   inkscape:zoom="0.84285714"
   inkscape:cx="121.07375"
   inkscape:cy="140"
   inkscape:window-x="0"
   inkscape:window-y="24"
   inkscape:window-maximized="0"
   inkscape:current-layer="Layer_1" />
<g
   id="g24"
   style="fill:#262626;fill-opacity:1">
	<path
   d="M231.5742,102.0518c-4.8028-3.125-9.9698-5.043-14.0645-6.3467c-4.0859-1.2852-7.0771-1.8789-7.2773-1.9199   c-0.4287-0.085-0.8555-0.124-1.2783-0.1387c-0.4512-0.082-0.9131-0.1309-1.3868-0.1309H206.25v39.3057   c3.8447-2.0889,6.79-3.9199,9.0459-5.4678v-15.5107c1.3017,0.4726,2.6377,1.0117,3.913,1.6152   c2.4707,1.1446,4.6563,2.5547,5.7959,3.7012c1.1924,1.2285,1.1319,1.5986,1.1426,1.7187c0,0.0499-0.0039,0.1514-0.0469,0.3526   c0,0.001,0,0.0019,0,0.0019c-0.1044,0.6094-1.0302,2.5547-3.9746,5.3018c-0.582,0.542-1.2334,1.1133-1.9824,1.7139   c-4.5361,3.6953-12.0635,8.2968-23.2666,13.4961c-4.0068,1.8623-5.7451,6.622-3.8828,10.6279   c1.3555,2.915,4.2432,4.6299,7.2607,4.6299c1.1289,0,2.2754-0.2403,3.3672-0.7471c11.9629-5.5713,20.4922-10.6377,26.6035-15.584   c1.0538-0.8623,2.0411-1.7246,2.9668-2.5928c4.3174-4.0478,7.2139-8.2158,8.4434-13.0556c0.0225-0.086,0.0498-0.168,0.0693-0.2549   c0.2852-1.2637,0.4444-2.5723,0.4424-3.8897c0.0108-2.9257-0.7988-5.7177-2.0342-8.0087   C237.9209,106.8281,234.7509,104.1612,231.5742,102.0518z"
   id="path2"
   style="fill:#262626;fill-opacity:1" />
	<rect
   x="176.25"
   y="93.5156"
   width="24"
   height="18.3008"
   id="rect4"
   style="fill:#262626;fill-opacity:1" />
	<path
   d="M206.25,155.2276v12.5888h-36V93.5156h-1.3174c-0.4727,0-0.9331,0.0489-1.3824,0.1299   c-0.9545,0.0323-1.9189,0.2276-2.8505,0.6221c0,0-0.0005,0-0.001,0v-0.002c-0.666,0.2715-11.1856,4.3653-27.897,4.3614   c-11.3432-0.0049-25.5449-1.8672-41.6699-8.0908c-4.1216-1.5909-8.7544,0.4589-10.3452,4.581   c-1.5908,4.1221,0.459,8.7539,4.581,10.3447c18.0821,6.9873,34.3316,9.167,47.4341,9.1641   c10.2349-0.0039,18.5415-1.3174,24.4024-2.6748v155.6855c0,6.8282,5.5371,12.3633,12.3632,12.3633   c6.8282,0,12.3653-5.5351,12.3653-12.3633v-90.2734h4.6347v90.2734c0,6.8282,5.5371,12.3633,12.3633,12.3633   c6.8281,0,12.3653-5.5351,12.3653-12.3633V150.6973v-0.0332C212.5058,152.167,209.4961,153.6856,206.25,155.2276z"
   id="path6"
   style="fill:#262626;fill-opacity:1" />
	<path
   d="M26.6596,232H47.5v46h8v-46h22.5161l9.8154,46h8.1797l-18.7583-87.9082C92.6401,181.1856,103,164.5576,103,145.5H0   c0,19.6709,11.0322,36.7598,27.2431,45.4336L8.6645,278h8.1797L26.6596,232z M76.5224,225H55.5v-28.1699   c5.0112-0.3848,9.8212-1.4824,14.3281-3.2002L76.5224,225z M47.5,196.8301V225H28.1533l6.5742-30.8086   C38.7802,195.5869,43.0605,196.4893,47.5,196.8301z"
   id="path8"
   style="fill:#262626;fill-opacity:1" />
	<rect
   x="5"
   y="135"
   width="93"
   height="5"
   id="rect10"
   style="fill:#262626;fill-opacity:1" />
	<path
   d="M208.75,39c7.7324,0,14-6.2676,14-14s-6.2676-14-14-14c-2.375,0-4.6094,0.5957-6.5684,1.6397   C201.497,5.5459,195.5229,0,188.25,0c-7.273,0-13.2466,5.5459-13.9312,12.6397C172.3593,11.5957,170.125,11,167.75,11   c-7.7325,0-14,6.2676-14,14s6.2675,14,14,14c0.3374,0,0.6684-0.0273,1-0.0508v10.5586c4.4785-5.8838,11.5512-9.6904,19.499-9.6904   c7.9482,0,15.0215,3.8066,19.501,9.6904V38.9492C208.082,38.9727,208.4121,39,208.75,39z"
   id="path12"
   style="fill:#262626;fill-opacity:1" />
	<circle
   cx="188.25"
   cy="64.3164"
   r="22.5"
   id="circle14"
   style="fill:#262626;fill-opacity:1" />
	<path
   d="M27.25,119c-3.3135,0-6,2.6865-6,6c0,3.3135,2.6865,6,6,6c2.9721,0,5.4331-2.164,5.9101-5h3.1797   c0.4771,2.836,2.938,5,5.9102,5c2.9721,0,5.4331-2.164,5.9101-5h3.1797c0.4771,2.836,2.938,5,5.9102,5   c2.9721,0,5.4331-2.164,5.9101-5h3.1797c0.4771,2.836,2.938,5,5.9102,5c2.9721,0,5.4331-2.164,5.9101-5H107.25v-2H78.1601   c-0.477-2.8359-2.938-5-5.9101-5c-2.9722,0-5.4331,2.1641-5.9102,5h-3.1797c-0.477-2.8359-2.938-5-5.9101-5   c-2.9722,0-5.4331,2.1641-5.9102,5h-3.1797c-0.477-2.8359-2.938-5-5.9101-5c-2.9722,0-5.4331,2.1641-5.9102,5h-3.1797   C32.6831,121.1641,30.2221,119,27.25,119z"
   id="path16"
   style="fill:#262626;fill-opacity:1" />
	<path
   d="M25.5722,92.7188c1.7696,4.5136,0.1162,10.1924-1.0864,14.6191c-0.3755,1.3828,3.1968,4.5449,3.5283,3.3242   c1.8902-6.958,3.0278-14.125-1.3945-20.3134c-2.8579-3.9991-9.1026-7.1065-8.3198-12.7959   c0.5371-3.9083,5.5312-7.0088,7.7026-10.0538c4.585-6.4277,4.2422-14.7548,3.0166-22.1748   c-0.2075-1.2568-3.8149-4.3242-3.5381-2.6484c1.2759,7.7266,1.3604,15.6885-3.5762,22.165   c-2.3364,3.0655-6.2456,5.4268-7.1337,9.3887c-1.004,4.4805,2.7475,9.4385,5.6684,12.3731   C22.3432,88.5166,24.5586,90.1338,25.5722,92.7188z"
   id="path18"
   style="fill:#262626;fill-opacity:1" />
	<path
   d="M35.2109,63.9639c-3.7925,6.876,1.9014,11.5898,5.938,16.2978c5.9429,6.9336,4.0405,19.1729,2.6504,27.3692   c-0.4619,2.7226,4.4082,3.6465,4.9013,0.7383c1.3814-8.1426,2.4361-17.628-0.8754-25.4737   c-1.6377-3.8799-4.1934-6.4541-7.024-9.4765c-4.1767-4.459-0.1909-9.3555,3.2041-12.6592   c5.4536-5.3067,11.6348-9.1084,12.9927-17.1445c1.2246-7.2461-1.2324-16.2325-5.8789-21.875   c-1.8481-2.2432-5.8057,0.0087-3.7383,2.5195c4.8823,5.9277,7.0625,17.2158,2.6675,23.9004   C46.0156,54.294,38.8295,57.4024,35.2109,63.9639z"
   id="path20"
   style="fill:#262626;fill-opacity:1" />
	<path
   d="M63.0361,59.6211c4.1699,4.4199,9.0542,9.8438,8.978,16.3164c-0.0444,3.7705-2.4858,7.001-4.5503,9.9522   c-5.6865,8.1269-4.6162,15.0234,1.5723,22.7314c1.2212,1.5205,6.0659,0.7979,4.4277-1.2422   c-3.1714-3.9492-6.2939-8.7988-4.7177-14.0654c1.0258-3.4287,3.5996-6.2656,5.5039-9.2236   c6.1137-9.4961,0.0229-18.4922-6.7862-25.711C66.1396,56.9756,61.2807,57.7598,63.0361,59.6211z"
   id="path22"
   style="fill:#262626;fill-opacity:1" />
</g>
</svg>