<svg width="64" height="64" viewBox="0 0 64 64" fill="none" xmlns="http://www.w3.org/2000/svg">
<path d="M61 60H3C2.45 60 2 60.45 2 61C2 61.55 2.45 62 3 62H61C61.55 62 62 61.55 62 61C62 60.45 61.55 60 61 60Z" fill="#262626" id="id_101"></path>
<path d="M61 56H58.62L53.89 46.55C53.73 46.21 53.38 46 53 46H48.89C50.19 44.73 51 42.96 51 41V21C51 20.45 50.55 20 50 20H47C47 17.79 45.21 16 43 16C42.15 16 41.33 16.27 40.65 16.77C39.6 16.1 38.32 15.84 37.06 16.1C36.13 14.79 34.64 14 33 14C31.37 14 29.85 14.81 28.93 16.11C28.62 16.04 28.31 16 28 16C25.79 16 24 17.79 24 20H18.33L37.68 8.83C39.11 8 39.6 6.17 38.78 4.73C38.37 4.04 37.73 3.54 36.95 3.34C36.18 3.13 35.37 3.23 34.68 3.63L32.88 4.67C31.53 2.95 29.48 2 27.37 2C26.19 2 24.98 2.31 23.88 2.94L18.69 5.94L18.19 5.07C17.36 3.64 15.52 3.15 14.09 3.97C12.66 4.8 12.16 6.64 12.99 8.07L13.49 8.94L8.29 11.94C5.25 13.7 4.02 17.42 5.3 20.59L3.5 21.63C2.07 22.46 1.58 24.3 2.4 25.73C2.96 26.69 3.97 27.23 5.01 27.23C5.51 27.23 6.03 27.1 6.5 26.83L13 23.08V41C13 42.96 13.81 44.73 15.11 46H11C10.62 46 10.27 46.21 10.11 46.55L5.39 56H3C2.45 56 2 56.45 2 57C2 57.55 2.45 58 3 58H6H11H24H32H40H53H58H61C61.55 58 62 57.55 62 57C62 56.45 61.55 56 61 56ZM28.91 18.23C29.15 18.36 29.44 18.38 29.69 18.29C29.95 18.2 30.16 18.01 30.28 17.76C30.77 16.69 31.83 16 33 16C34.15 16 35.18 16.65 35.69 17.7C35.92 18.17 36.46 18.39 36.94 18.2C38.08 17.77 39.21 18.05 40.03 18.81C40.23 19 40.5 19.1 40.78 19.08C41.05 19.06 41.3 18.93 41.48 18.72C41.87 18.26 42.42 18 43 18C44.1 18 45 18.9 45 20H26C26 18.59 27.52 17.52 28.91 18.23ZM14.72 7.07C14.45 6.6 14.61 5.98 15.09 5.71C15.25 5.62 15.42 5.57 15.59 5.57C15.93 5.57 16.27 5.75 16.45 6.07L16.95 6.94L15.22 7.94L14.72 7.07ZM5.5 25.1C5.02 25.38 4.41 25.21 4.13 24.73C3.86 24.26 4.02 23.64 4.5 23.37L7.09 21.87H7.1L33.08 6.87L35.68 5.37C35.83 5.28 36.01 5.23 36.18 5.23C36.52 5.23 36.86 5.41 37.04 5.73C37.13 5.89 37.18 6.06 37.18 6.23C37.18 6.58 37 6.91 36.68 7.1L14.33 20H14C13.54 20 13.14 20.32 13.04 20.75L5.5 25.1ZM7.62 56L11.62 48H19.83C19.42 49.16 18.3 50 17 50H14C13.62 50 13.27 50.21 13.11 50.55L10.38 56H7.62ZM42.82 56C42.94 55.69 43 55.35 43 55C43 52.65 40.94 50.53 40.71 50.29C40.32 49.9 39.68 49.9 39.29 50.29C39.06 50.53 37 52.65 37 55C37 55.35 37.06 55.69 37.18 56H34.82C34.94 55.69 35 55.35 35 55C35 52.65 32.94 50.53 32.71 50.29C32.32 49.9 31.68 49.9 31.29 50.29C31.06 50.53 29 52.65 29 55C29 55.35 29.06 55.69 29.18 56H26.82C26.94 55.69 27 55.35 27 55C27 52.65 24.94 50.53 24.71 50.29C24.32 49.9 23.68 49.9 23.29 50.29C23.06 50.53 21 52.65 21 55C21 55.35 21.06 55.69 21.18 56H12.62L14.62 52H17C19.42 52 21.44 50.28 21.9 48H42.1C42.56 50.28 44.58 52 47 52H49.38L51.38 56H42.82ZM53.62 56L50.89 50.55C50.73 50.21 50.38 50 50 50H47C45.7 50 44.58 49.16 44.17 48H52.38L56.38 56H53.62Z" fill="#262626" id="id_102"></path>
<path d="M60.29 13.29L58.87 14.71C58.23 15.35 57.26 15.51 56.45 15.11C54.87 14.31 52.96 14.62 51.65 15.94C51.08 16.5 50.26 16.7 49.5 16.44C48.97 16.27 48.41 16.55 48.23 17.08C48.06 17.6 48.34 18.17 48.86 18.34C49.29 18.48 49.73 18.55 50.16 18.55C51.24 18.55 52.29 18.12 53.13 17.29C53.77 16.65 54.74 16.49 55.55 16.89C57.13 17.68 59.04 17.38 60.29 16.13L61.71 14.71C62.1 14.32 62.1 13.68 61.71 13.29C61.32 12.9 60.68 12.9 60.29 13.29Z" fill="#1f1f1f" id="id_103"></path>
<path d="M45.29 14.14C45.48 14.14 45.67 14.09 45.84 13.97C46.64 13.44 47.65 13.34 48.54 13.69C50.79 14.59 53.32 13.74 54.57 11.66L54.72 11.41C55.24 10.54 56.2 10 57.21 10H58C58.55 10 59 9.55 59 9C59 8.45 58.55 8 58 8H57.21C55.5 8 53.89 8.91 53 10.38L52.86 10.63C52.12 11.86 50.61 12.37 49.28 11.83C47.78 11.24 46.08 11.41 44.73 12.31C44.27 12.61 44.15 13.24 44.46 13.7C44.65 13.98 44.97 14.14 45.29 14.14Z" fill="#262626" id="id_104"></path>
<path d="M41.55 6.89C41.7 6.97 41.85 7 42 7C42.37 7 42.72 6.8 42.89 6.45L43.19 5.86C43.37 5.5 43.8 5.32 44.18 5.45C45.51 5.89 46.98 5.28 47.6 4.03L47.89 3.45C48.14 2.95 47.94 2.35 47.45 2.11C46.95 1.86 46.35 2.06 46.11 2.55L45.81 3.14C45.63 3.5 45.2 3.68 44.82 3.55C43.49 3.11 42.02 3.72 41.4 4.97L41.11 5.55C40.86 6.05 41.06 6.65 41.55 6.89Z" fill="#262626" id="id_105"></path>
<path d="M40.55 12.89C40.7 12.97 40.85 13 41 13C41.37 13 41.72 12.8 41.89 12.45L42.86 10.52C43.01 10.21 43.29 9.97 43.62 9.86C43.96 9.75 44.31 9.78 44.63 9.93C46.17 10.7 48.08 10.15 48.96 8.67L50.18 6.64C50.42 6.25 50.85 6 51.31 6H53C53.55 6 54 5.55 54 5C54 4.45 53.55 4 53 4H51.31C50.15 4 49.06 4.62 48.47 5.61L47.25 7.64C46.9 8.23 46.14 8.45 45.52 8.14C44.73 7.75 43.83 7.68 42.99 7.96C42.15 8.24 41.46 8.84 41.07 9.63L40.11 11.55C39.86 12.05 40.06 12.65 40.55 12.89Z" fill="#262626" id="id_106"></path>
</svg>